<svg id="Calque_3" data-name="Calque 3" xmlns="http://www.w3.org/2000/svg" viewBox="0 0 466.82 284.27"><defs><style>.cls-1,.cls-4{fill:#1724ca;}.cls-2{fill:#0f3859;stroke:#1724ca;stroke-linecap:round;stroke-linejoin:round;stroke-width:2.26px;}.cls-3,.cls-5{fill:#30a8fe;}.cls-4{font-size:79.08px;}.cls-4,.cls-5{font-family:CocogooseProTrial-Regular, CocogooseProTrial;}.cls-5{font-size:95.29px;}.cls-6{letter-spacing:-0.08em;}</style></defs><title>logoBibliotech</title><path class="cls-1" d="M191.6,330.28H178.38l.52-178.92,9.63-3.94a8.08,8.08,0,0,1,11.15,7.48V322.19A8.09,8.09,0,0,1,191.6,330.28Z" transform="translate(-19.18 -102)"/><path class="cls-1" d="M109.7,110.1V373.9a8.09,8.09,0,0,1-12.48,6.79L25,334a12.63,12.63,0,0,1-5.78-10.62V174.32a12.65,12.65,0,0,1,4.54-9.71L33,156.83l23.4-19.53,40-33.4A8.08,8.08,0,0,1,109.7,110.1Z" transform="translate(-19.18 -102)"/><line class="cls-2" x1="104.79" y1="17.43" x2="104.79" y2="257.03"/><line class="cls-2" x1="125.02" y1="26.57" x2="125.02" y2="247.89"/><line class="cls-2" x1="145.25" y1="35.71" x2="145.25" y2="238.75"/><polygon class="cls-3" points="37.26 35.3 37.26 107.96 25.56 94.1 13.86 119.66 13.86 54.83 37.26 35.3"/><text class="cls-4" transform="translate(187.36 127.95)">Biblio’</text><text class="cls-5" transform="matrix(1, 0, 0, 1, 187.46, 219.4)"><tspan class="cls-6">T</tspan><tspan x="53.23" y="0">ecH</tspan></text></svg>